<svg id="svg" version="1.1" xmlns="http://www.w3.org/2000/svg" xmlns:xlink="http://www.w3.org/1999/xlink" width="400" height="396.41791044776124" viewBox="0, 0, 400,396.41791044776124"><g id="svgg"><path id="path0" d="M137.344 16.415 C 136.679 16.705,135.653 17.514,135.065 18.214 L 133.994 19.486 133.999 139.277 L 134.005 259.068 117.838 275.124 C 108.947 283.954,88.474 304.202,72.343 320.119 C 19.045 372.710,18.684 373.073,18.216 374.492 C 16.730 378.994,21.391 383.107,25.996 381.356 C 26.586 381.132,34.312 373.773,43.165 365.004 C 52.019 356.234,66.132 342.274,74.527 333.982 C 82.923 325.690,96.749 312.029,105.253 303.624 C 113.756 295.220,125.441 283.679,131.219 277.978 L 141.724 267.613 262.673 267.602 L 383.622 267.592 385.327 266.690 C 389.311 264.583,389.506 259.343,385.684 257.086 C 384.351 256.299,383.449 256.292,264.817 256.095 L 145.292 255.897 145.094 137.743 C 144.904 24.148,144.868 19.546,144.171 18.483 C 142.806 16.399,139.605 15.430,137.344 16.415 M233.600 71.217 C 230.669 72.662,230.684 72.559,230.809 90.348 L 230.922 106.229 232.146 107.453 C 233.953 109.260,235.198 109.395,250.072 109.406 C 264.926 109.416,266.450 109.245,268.247 107.370 L 269.376 106.193 269.488 90.306 L 269.600 74.419 268.695 73.088 C 266.984 70.574,266.913 70.564,250.089 70.574 C 236.969 70.582,234.710 70.670,233.600 71.217 M257.987 89.881 L 258.094 97.503 257.194 97.725 C 256.699 97.847,253.171 97.896,249.356 97.833 L 242.418 97.721 242.310 90.399 C 242.250 86.373,242.291 82.845,242.400 82.561 C 242.555 82.156,244.246 82.067,250.239 82.152 L 257.879 82.260 257.987 89.881 M46.840 106.851 C 44.663 107.796,24.656 127.897,24.124 129.673 C 23.115 133.040,23.248 133.224,35.160 144.896 C 50.486 159.914,47.895 159.885,62.798 145.198 C 78.080 130.136,78.083 132.371,62.766 117.456 C 50.621 105.629,50.239 105.375,46.840 106.851 M54.920 126.014 L 60.349 131.315 54.858 136.817 C 51.838 139.843,49.275 142.316,49.163 142.312 C 48.770 142.298,38.057 131.773,38.055 131.399 C 38.052 130.792,48.516 120.507,49.027 120.615 C 49.283 120.669,51.935 123.099,54.920 126.014 M201.897 134.037 C 201.181 134.245,200.140 135.039,199.519 135.854 L 198.414 137.302 198.414 153.062 C 198.414 174.506,196.364 172.510,218.236 172.358 C 239.351 172.210,237.463 174.109,237.463 153.023 C 237.463 131.905,239.182 133.603,217.839 133.642 C 209.772 133.657,202.598 133.835,201.897 134.037 M300.789 134.164 C 296.932 135.541,296.928 135.560,296.928 153.109 C 296.929 174.209,294.927 172.250,316.481 172.250 C 338.098 172.250,336.179 174.135,336.166 152.916 C 336.153 131.978,337.776 133.590,316.723 133.615 C 305.684 133.628,301.928 133.758,300.789 134.164 M225.696 145.644 C 225.973 146.365,226.001 159.360,225.728 160.258 C 225.353 161.487,210.294 161.298,209.962 160.059 C 209.552 158.529,209.686 146.677,210.123 145.861 C 210.659 144.859,225.316 144.654,225.696 145.644 M324.242 145.641 C 324.556 146.020,324.663 148.435,324.588 153.471 L 324.480 160.753 316.551 160.753 L 308.622 160.753 308.509 153.816 C 308.350 144.045,307.412 145.094,316.312 145.094 C 322.185 145.094,323.885 145.211,324.242 145.641 M81.802 170.961 C 77.247 174.939,61.262 191.071,60.800 192.158 C 59.259 195.781,59.524 196.171,71.822 208.384 C 86.590 223.050,84.265 223.081,99.576 208.019 C 111.460 196.329,111.658 196.058,110.632 192.949 C 110.182 191.583,90.260 171.283,88.305 170.196 C 86.477 169.181,83.431 169.539,81.802 170.961 M91.075 188.795 C 93.967 191.681,96.333 194.238,96.333 194.477 C 96.333 194.946,86.278 205.056,85.569 205.301 C 85.092 205.465,74.529 195.088,74.529 194.456 C 74.529 194.078,85.210 183.591,85.624 183.562 C 85.730 183.554,88.183 185.909,91.075 188.795 M167.748 198.513 C 165.687 200.475,165.625 201.087,165.781 217.839 C 165.961 237.099,164.152 235.479,185.476 235.480 C 206.881 235.481,204.955 237.399,204.955 216.075 C 204.955 194.974,207.083 197.030,185.250 197.028 L 169.310 197.027 167.748 198.513 M268.947 197.411 C 267.688 197.920,266.009 200.131,265.979 201.319 C 265.671 213.485,266.102 231.808,266.723 232.883 C 268.218 235.476,268.440 235.505,285.828 235.388 C 306.957 235.246,304.856 237.356,304.856 216.272 C 304.856 199.356,304.852 199.323,302.359 197.804 C 300.993 196.971,270.909 196.617,268.947 197.411 M193.261 216.254 L 193.261 223.786 185.431 223.893 L 177.602 224.001 177.602 216.254 L 177.602 208.507 185.431 208.614 L 193.261 208.722 193.261 216.254 M293.269 216.155 L 293.162 223.786 285.332 223.893 L 277.502 224.001 277.502 216.262 L 277.502 208.523 285.440 208.523 L 293.377 208.523 293.269 216.155 M52.020 233.119 C 51.523 233.318,46.213 238.347,40.219 244.293 L 29.323 255.104 29.329 257.205 C 29.339 260.306,29.596 260.632,40.455 271.314 C 55.631 286.242,53.259 286.269,68.575 270.992 C 83.250 256.355,83.256 258.663,68.506 244.202 C 55.897 231.840,55.638 231.666,52.020 233.119 M60.260 263.031 C 57.321 265.975,54.702 268.385,54.440 268.385 C 53.695 268.385,43.608 258.421,43.608 257.685 C 43.608 257.324,46.052 254.670,49.039 251.787 L 54.471 246.545 60.036 252.111 L 65.602 257.677 60.260 263.031 M216.758 283.982 C 203.308 288.566,199.167 305.617,209.079 315.600 C 222.833 329.451,246.176 317.063,242.175 298.037 C 239.865 287.055,227.616 280.281,216.758 283.982 M341.173 283.882 C 327.333 288.642,323.301 306.375,333.841 316.133 C 349.657 330.775,374.222 313.089,364.966 293.723 C 360.960 285.340,350.052 280.829,341.173 283.882 M227.104 295.473 C 232.476 298.279,232.279 306.331,226.769 309.118 C 219.562 312.763,212.191 304.813,216.425 297.963 C 218.616 294.417,223.086 293.375,227.104 295.473 M350.983 295.203 C 356.733 298.113,356.800 305.940,351.103 309.051 C 344.615 312.594,336.965 305.665,340.135 299.117 C 342.178 294.896,346.965 293.169,350.983 295.203 M130.624 312.925 C 116.443 317.609,111.987 334.859,122.328 345.036 C 138.298 360.754,163.873 341.973,153.360 322.248 C 149.400 314.818,138.467 310.334,130.624 312.925 M281.621 324.014 C 263.201 331.017,264.445 356.164,283.449 360.990 C 296.709 364.357,309.461 352.749,307.291 339.287 C 305.397 327.530,292.521 319.869,281.621 324.014 M139.976 324.498 C 142.638 325.874,144.622 329.685,144.160 332.532 C 142.528 342.586,127.866 341.032,128.512 330.874 C 128.872 325.235,134.908 321.877,139.976 324.498 M291.757 335.321 C 296.533 337.786,297.392 344.068,293.473 347.873 C 287.390 353.782,277.272 346.900,280.779 339.239 C 282.822 334.777,287.481 333.114,291.757 335.321 M204.869 347.494 C 187.391 351.731,184.387 375.299,200.293 383.389 C 217.005 391.888,234.905 374.852,226.944 358.025 C 223.084 349.867,213.648 345.365,204.869 347.494 M213.534 359.598 C 219.286 363.153,218.061 372.121,211.585 373.865 C 202.359 376.349,197.323 363.697,205.821 359.385 C 208.356 358.099,211.237 358.178,213.534 359.598 " stroke="none" fill="#353535" fill-rule="evenodd"></path><path id="path1" d="M0.000 198.216 L 0.000 396.432 200.000 396.432 L 400.000 396.432 400.000 198.216 L 400.000 0.000 200.000 0.000 L 0.000 0.000 0.000 198.216 M142.657 16.547 C 143.207 16.958,144.025 17.786,144.475 18.389 L 145.292 19.483 145.491 137.492 L 145.689 255.500 265.213 255.699 C 358.638 255.854,384.923 256.003,385.587 256.384 C 389.438 258.591,389.846 263.782,386.385 266.565 L 384.862 267.790 263.241 267.988 L 141.621 268.186 111.742 297.710 C 77.570 331.476,58.320 350.504,40.321 368.307 C 25.283 383.182,24.660 383.594,20.633 381.330 C 16.574 379.049,16.619 374.586,20.739 370.590 C 22.452 368.929,69.203 322.745,97.522 294.739 C 106.353 286.006,118.083 274.407,123.590 268.964 L 133.602 259.068 133.601 139.346 C 133.601 22.770,133.620 19.591,134.348 18.398 C 135.981 15.720,140.270 14.764,142.657 16.547 M267.499 71.290 C 269.992 73.069,269.970 72.900,269.970 90.167 L 269.970 105.845 268.544 107.424 C 266.465 109.724,265.825 109.808,250.347 109.800 C 234.598 109.792,233.902 109.704,231.814 107.469 L 230.327 105.878 230.327 90.064 L 230.327 74.250 231.233 72.903 C 233.066 70.179,233.071 70.178,250.545 70.277 L 266.204 70.367 267.499 71.290 M50.931 106.289 C 53.302 106.947,73.948 127.476,74.573 129.796 C 75.462 133.098,75.102 133.597,63.709 144.855 C 52.037 156.388,51.786 156.587,48.874 156.589 C 46.301 156.591,46.789 156.995,33.818 144.112 C 19.992 130.380,19.945 132.375,34.424 117.981 C 45.140 107.328,45.775 106.757,47.500 106.236 C 48.973 105.792,49.149 105.795,50.931 106.289 M235.311 134.605 C 237.840 136.652,237.900 137.123,237.774 153.846 L 237.661 168.745 236.547 170.204 C 234.518 172.864,234.368 172.884,217.194 172.758 C 196.158 172.605,198.063 174.449,197.899 154.084 C 197.716 131.459,195.968 133.221,218.497 133.327 L 233.822 133.399 235.311 134.605 M332.995 134.093 C 336.472 135.870,336.356 135.293,336.496 151.565 C 336.695 174.639,338.355 172.948,315.688 172.767 C 294.743 172.600,296.531 174.432,296.531 153.143 C 296.531 131.589,294.823 133.286,316.566 133.235 C 331.045 133.202,331.274 133.214,332.995 134.093 M87.810 169.656 C 88.775 170.118,93.531 174.493,99.973 180.846 C 114.752 195.423,114.661 193.601,101.270 206.940 C 84.382 223.760,86.729 223.635,71.504 208.523 C 59.132 196.242,58.838 195.808,60.411 192.158 C 61.250 190.209,81.977 169.799,83.449 169.472 C 84.103 169.326,84.817 169.148,85.035 169.075 C 85.810 168.816,86.244 168.907,87.810 169.656 M202.481 197.421 C 205.381 199.189,205.349 198.979,205.350 216.294 C 205.352 237.782,207.294 235.876,185.411 235.876 C 168.338 235.877,168.675 235.924,166.621 233.233 L 165.510 231.778 165.393 217.188 C 165.254 199.908,165.519 198.456,169.078 197.004 C 171.033 196.207,201.106 196.582,202.481 197.421 M302.382 197.421 C 305.281 199.188,305.250 198.983,305.251 216.261 L 305.253 231.729 304.286 233.152 C 302.441 235.867,302.367 235.877,285.246 235.877 C 263.714 235.877,265.545 237.740,265.596 215.877 C 265.637 198.389,265.611 198.530,269.164 196.956 C 270.881 196.194,301.064 196.617,302.382 197.421 M57.440 233.132 C 59.208 234.210,78.803 253.602,79.523 254.985 C 81.438 258.670,80.760 259.692,68.391 271.754 C 53.092 286.675,55.348 286.731,39.771 271.049 C 25.212 256.392,25.197 258.819,39.932 244.121 C 52.574 231.511,53.661 230.828,57.440 233.132 M229.195 283.440 C 245.341 288.462,247.905 310.742,233.300 319.120 C 218.854 327.407,201.097 315.753,203.399 299.496 C 205.098 287.498,217.474 279.794,229.195 283.440 M352.626 283.196 C 367.963 287.299,372.413 307.080,360.273 317.184 C 343.777 330.912,320.006 312.453,329.595 293.361 C 333.717 285.154,343.616 280.785,352.626 283.196 M141.328 312.453 C 149.768 314.532,156.174 322.714,156.190 331.433 C 156.221 348.994,134.557 357.827,122.120 345.325 C 107.927 331.057,121.633 307.602,141.328 312.453 M293.558 323.338 C 303.114 326.060,309.327 335.748,307.705 345.397 C 304.987 361.566,284.550 367.585,273.337 355.519 C 259.842 340.998,274.373 317.872,293.558 323.338 M215.878 347.678 C 229.659 352.419,233.767 369.763,223.552 380.075 C 211.091 392.653,189.504 383.922,189.504 366.303 C 189.504 352.804,203.025 343.256,215.878 347.678 " stroke="none" fill="#fbfbfb" fill-rule="evenodd"></path><path id="path2" d="M133.793 139.544 C 133.793 205.282,133.839 232.175,133.895 199.306 C 133.951 166.437,133.951 112.651,133.895 79.782 C 133.839 46.913,133.793 73.806,133.793 139.544 M145.191 138.034 C 145.138 202.724,145.228 255.735,145.391 255.836 C 145.660 256.002,145.659 177.093,145.390 63.033 C 145.334 39.594,145.245 73.344,145.191 138.034 M230.507 89.990 C 230.507 98.385,230.560 101.819,230.624 97.621 C 230.688 93.424,230.688 86.556,230.624 82.359 C 230.560 78.162,230.507 81.596,230.507 89.990 M269.754 89.990 C 269.754 98.385,269.806 101.819,269.871 97.621 C 269.935 93.424,269.935 86.556,269.871 82.359 C 269.806 78.162,269.754 81.596,269.754 89.990 M242.400 82.561 C 242.291 82.845,242.250 86.373,242.310 90.399 L 242.418 97.721 249.356 97.833 C 253.171 97.896,256.699 97.847,257.194 97.725 L 258.094 97.503 257.987 89.881 L 257.879 82.260 250.239 82.152 C 244.246 82.067,242.555 82.156,242.400 82.561 M57.086 111.992 C 59.587 114.500,61.721 116.551,61.830 116.551 C 61.939 116.551,59.983 114.500,57.483 111.992 C 54.982 109.485,52.847 107.433,52.738 107.433 C 52.629 107.433,54.586 109.485,57.086 111.992 M43.308 125.769 C 40.418 128.657,38.054 131.191,38.055 131.399 C 38.057 131.773,48.770 142.298,49.163 142.312 C 49.275 142.316,51.838 139.843,54.858 136.817 L 60.349 131.315 54.920 126.014 C 51.935 123.099,49.283 120.669,49.027 120.615 C 48.772 120.561,46.198 122.880,43.308 125.769 M54.405 125.961 C 57.188 128.737,59.465 131.193,59.465 131.417 C 59.465 131.642,57.145 134.140,54.309 136.969 L 49.154 142.113 43.764 136.724 L 38.375 131.334 43.667 126.134 C 46.578 123.274,49.046 120.929,49.152 120.923 C 49.258 120.917,51.622 123.184,54.405 125.961 M26.744 125.768 L 24.777 127.849 26.858 125.882 C 28.792 124.054,29.121 123.687,28.826 123.687 C 28.763 123.687,27.826 124.623,26.744 125.768 M62.433 145.590 L 56.888 151.239 62.537 145.694 C 65.644 142.645,68.186 140.102,68.186 140.045 C 68.186 139.761,67.584 140.342,62.433 145.590 M39.638 149.554 C 42.578 152.552,45.031 155.005,45.089 155.005 C 45.373 155.005,44.806 154.416,39.742 149.449 L 34.291 144.103 39.638 149.554 M210.123 145.861 C 209.686 146.677,209.552 158.529,209.962 160.059 C 210.294 161.298,225.353 161.487,225.728 160.258 C 226.001 159.360,225.973 146.365,225.696 145.644 C 225.316 144.654,210.659 144.859,210.123 145.861 M308.616 145.986 C 308.495 146.477,308.447 150.000,308.509 153.816 L 308.622 160.753 316.551 160.753 L 324.480 160.753 324.588 153.471 C 324.663 148.435,324.556 146.020,324.242 145.641 C 323.340 144.555,308.890 144.874,308.616 145.986 M48.464 156.468 C 48.845 156.567,49.470 156.567,49.851 156.468 C 50.233 156.368,49.921 156.286,49.158 156.286 C 48.394 156.286,48.082 156.368,48.464 156.468 M84.936 169.550 C 85.317 169.649,85.942 169.649,86.323 169.550 C 86.705 169.450,86.392 169.368,85.629 169.368 C 84.866 169.368,84.554 169.450,84.936 169.550 M101.685 183.152 C 105.168 186.640,108.108 189.495,108.217 189.495 C 108.326 189.495,105.565 186.640,102.081 183.152 C 98.598 179.663,95.658 176.809,95.549 176.809 C 95.440 176.809,98.201 179.663,101.685 183.152 M79.980 188.815 C 76.982 191.696,74.529 194.235,74.529 194.456 C 74.529 195.088,85.092 205.465,85.569 205.301 C 86.278 205.056,96.333 194.946,96.333 194.477 C 96.333 194.056,86.011 183.534,85.624 183.562 C 85.518 183.569,82.978 185.933,79.980 188.815 M91.080 189.260 C 93.751 191.886,95.937 194.220,95.937 194.446 C 95.937 194.673,93.620 197.170,90.788 199.995 L 85.639 205.133 83.582 203.161 C 82.451 202.077,80.007 199.709,78.151 197.900 L 74.777 194.610 80.077 189.298 C 82.992 186.377,85.568 184.099,85.801 184.237 C 86.034 184.374,88.409 186.635,91.080 189.260 M177.899 196.927 C 182.096 196.991,188.964 196.991,193.162 196.927 C 197.359 196.863,193.925 196.810,185.530 196.810 C 177.136 196.810,173.702 196.863,177.899 196.927 M277.800 196.927 C 281.997 196.991,288.865 196.991,293.062 196.927 C 297.260 196.863,293.826 196.810,285.431 196.810 C 277.037 196.810,273.603 196.863,277.800 196.927 M64.817 201.784 C 66.770 203.746,68.457 205.352,68.566 205.352 C 68.675 205.352,67.166 203.746,65.213 201.784 C 63.260 199.822,61.573 198.216,61.464 198.216 C 61.354 198.216,62.863 199.822,64.817 201.784 M205.135 216.056 C 205.135 224.014,205.187 227.270,205.252 223.290 C 205.317 219.311,205.317 212.800,205.252 208.821 C 205.187 204.841,205.135 208.097,205.135 216.056 M305.036 216.254 C 305.036 224.321,305.089 227.565,305.153 223.463 C 305.218 219.360,305.218 212.760,305.153 208.795 C 305.088 204.830,305.036 208.186,305.036 216.254 M265.787 217.245 C 265.787 224.331,265.840 227.230,265.906 223.687 C 265.972 220.144,265.972 214.346,265.906 210.803 C 265.840 207.260,265.787 210.159,265.787 217.245 M94.945 212.488 C 92.336 215.104,90.290 217.245,90.399 217.245 C 90.508 217.245,92.732 215.104,95.342 212.488 C 97.952 209.871,99.998 207.730,99.888 207.730 C 99.779 207.730,97.555 209.871,94.945 212.488 M177.602 216.254 L 177.602 224.001 185.431 223.893 L 193.261 223.786 193.261 216.254 L 193.261 208.722 185.431 208.614 L 177.602 208.507 177.602 216.254 M277.502 216.262 L 277.502 224.001 285.332 223.893 L 293.162 223.786 293.269 216.155 L 293.377 208.523 285.440 208.523 L 277.502 208.523 277.502 216.262 M64.817 240.634 C 68.300 244.123,71.239 246.977,71.348 246.977 C 71.458 246.977,68.697 244.123,65.213 240.634 C 61.730 237.146,58.790 234.291,58.681 234.291 C 58.572 234.291,61.333 237.146,64.817 240.634 M177.502 235.777 C 181.046 235.843,186.843 235.843,190.387 235.777 C 193.930 235.712,191.031 235.658,183.944 235.658 C 176.858 235.658,173.959 235.712,177.502 235.777 M278.221 235.777 C 281.778 235.843,287.487 235.843,290.907 235.777 C 294.327 235.711,291.417 235.657,284.440 235.658 C 277.463 235.658,274.664 235.712,278.221 235.777 M49.039 251.787 C 46.052 254.670,43.608 257.324,43.608 257.685 C 43.608 258.421,53.695 268.385,54.440 268.385 C 54.702 268.385,57.321 265.975,60.260 263.031 L 65.602 257.677 60.036 252.111 L 54.471 246.545 49.039 251.787 M60.059 252.527 L 65.202 257.681 60.059 262.834 C 57.231 265.669,54.734 267.988,54.509 267.988 C 54.285 267.988,51.788 265.669,48.959 262.834 L 43.817 257.681 48.959 252.527 C 51.788 249.693,54.285 247.374,54.509 247.374 C 54.734 247.374,57.231 249.693,60.059 252.527 M29.032 257.681 C 29.032 258.444,29.113 258.756,29.213 258.375 C 29.313 257.993,29.313 257.369,29.213 256.987 C 29.113 256.606,29.032 256.918,29.032 257.681 M68.776 270.862 L 62.438 277.304 68.880 270.966 C 72.423 267.480,75.322 264.581,75.322 264.524 C 75.322 264.241,74.665 264.877,68.776 270.862 M112.384 280.377 L 106.046 286.819 112.488 280.480 C 116.031 276.994,118.930 274.095,118.930 274.038 C 118.930 273.755,118.272 274.392,112.384 280.377 M49.141 279.980 C 50.113 281.016,50.960 281.863,51.024 281.863 C 51.322 281.863,51.007 281.507,49.257 279.865 L 47.374 278.097 49.141 279.980 M221.903 282.943 C 222.611 283.031,223.771 283.031,224.480 282.943 C 225.188 282.855,224.609 282.783,223.191 282.783 C 221.774 282.783,221.194 282.855,221.903 282.943 M346.390 282.943 C 347.102 283.032,348.173 283.030,348.768 282.939 C 349.364 282.849,348.781 282.777,347.473 282.779 C 346.165 282.781,345.677 282.855,346.390 282.943 M236.868 288.603 C 237.720 289.475,238.506 290.188,238.615 290.188 C 238.724 290.188,238.116 289.475,237.265 288.603 C 236.413 287.730,235.627 287.017,235.518 287.017 C 235.409 287.017,236.017 287.730,236.868 288.603 M115.164 293.756 C 111.898 297.027,109.316 299.703,109.425 299.703 C 109.534 299.703,112.295 297.027,115.560 293.756 C 118.825 290.486,121.407 287.810,121.298 287.810 C 121.189 287.810,118.429 290.486,115.164 293.756 M332.780 289.098 L 331.615 290.387 332.904 289.222 C 334.105 288.137,334.374 287.810,334.068 287.810 C 334.000 287.810,333.420 288.389,332.780 289.098 M242.716 302.279 C 242.721 303.152,242.802 303.462,242.897 302.969 C 242.992 302.475,242.988 301.762,242.889 301.383 C 242.790 301.004,242.712 301.407,242.716 302.279 M86.401 305.946 L 85.035 307.433 86.521 306.067 C 87.905 304.795,88.190 304.460,87.887 304.460 C 87.821 304.460,87.152 305.129,86.401 305.946 M79.677 312.686 L 74.727 317.740 79.782 312.791 C 82.562 310.069,84.836 307.794,84.836 307.736 C 84.836 307.452,84.274 307.991,79.677 312.686 M134.679 312.278 C 135.383 312.366,136.631 312.367,137.454 312.281 C 138.276 312.196,137.701 312.124,136.174 312.122 C 134.648 312.120,133.975 312.191,134.679 312.278 M150.050 317.939 C 150.901 318.811,151.687 319.524,151.796 319.524 C 151.905 319.524,151.298 318.811,150.446 317.939 C 149.594 317.066,148.808 316.353,148.699 316.353 C 148.590 316.353,149.198 317.066,150.050 317.939 M84.242 324.281 C 80.977 327.552,78.394 330.228,78.503 330.228 C 78.612 330.228,81.373 327.552,84.638 324.281 C 87.903 321.011,90.486 318.335,90.377 318.335 C 90.268 318.335,87.507 321.011,84.242 324.281 M286.925 322.983 C 287.637 323.071,288.708 323.069,289.303 322.979 C 289.899 322.889,289.316 322.816,288.008 322.819 C 286.700 322.821,286.212 322.895,286.925 322.983 M49.153 342.815 L 42.616 349.455 49.257 342.918 C 55.426 336.845,56.076 336.174,55.793 336.174 C 55.736 336.174,52.748 339.163,49.153 342.815 M51.334 356.888 L 43.409 364.916 51.437 356.991 C 58.896 349.627,59.644 348.860,59.362 348.860 C 59.305 348.860,55.693 352.473,51.334 356.888 M189.587 366.303 C 189.587 367.066,189.668 367.379,189.768 366.997 C 189.868 366.615,189.868 365.991,189.768 365.610 C 189.668 365.228,189.587 365.540,189.587 366.303 M21.197 370.367 L 18.831 372.844 21.308 370.478 C 23.610 368.280,23.967 367.889,23.674 367.889 C 23.613 367.889,22.498 369.004,21.197 370.367 " stroke="none" fill="#e68869" fill-rule="evenodd"></path><path id="path3" d="M138.850 15.734 C 139.232 15.834,139.856 15.834,140.238 15.734 C 140.619 15.634,140.307 15.553,139.544 15.553 C 138.781 15.553,138.469 15.634,138.850 15.734 M141.163 15.977 C 141.254 16.043,141.863 16.411,142.517 16.794 L 143.707 17.490 142.771 16.674 C 142.256 16.225,141.646 15.857,141.416 15.857 C 141.186 15.857,141.072 15.911,141.163 15.977 M242.095 70.465 C 246.277 70.529,253.235 70.529,257.556 70.465 C 261.876 70.401,258.454 70.349,249.950 70.349 C 241.447 70.349,237.912 70.401,242.095 70.465 M231.883 72.052 L 230.922 73.142 232.111 72.151 C 232.765 71.606,233.375 71.115,233.465 71.060 C 233.556 71.006,233.454 70.961,233.237 70.961 C 233.021 70.961,232.411 71.452,231.883 72.052 M38.449 114.073 L 31.913 120.714 38.553 114.177 C 42.205 110.582,45.193 107.594,45.193 107.537 C 45.193 107.254,44.522 107.904,38.449 114.073 M243.138 109.712 C 247.240 109.777,253.841 109.777,257.806 109.712 C 261.771 109.647,258.414 109.595,250.347 109.595 C 242.279 109.595,239.035 109.648,243.138 109.712 M64.671 119.123 C 69.606 124.141,73.837 128.603,74.074 129.039 C 74.359 129.563,74.509 129.636,74.517 129.254 C 74.524 128.936,70.292 124.474,65.114 119.338 L 55.699 110.001 64.671 119.123 M23.489 131.417 C 23.494 132.289,23.575 132.600,23.670 132.106 C 23.765 131.613,23.761 130.900,23.662 130.521 C 23.563 130.142,23.485 130.545,23.489 131.417 M23.798 133.579 C 23.791 133.896,27.577 137.912,32.210 142.504 L 40.634 150.853 32.653 142.721 C 28.264 138.248,24.478 134.232,24.241 133.796 C 23.958 133.275,23.806 133.201,23.798 133.579 M210.432 133.498 C 214.644 133.562,221.423 133.562,225.497 133.498 C 229.571 133.433,226.125 133.381,217.839 133.381 C 209.554 133.381,206.221 133.434,210.432 133.498 M309.144 133.498 C 313.356 133.562,320.135 133.562,324.208 133.498 C 328.282 133.433,324.836 133.381,316.551 133.381 C 308.266 133.381,304.932 133.434,309.144 133.498 M200.075 134.886 C 199.359 135.595,199.228 135.797,199.783 135.336 C 200.339 134.874,201.150 134.300,201.586 134.059 C 202.022 133.819,202.153 133.616,201.877 133.610 C 201.601 133.603,200.790 134.177,200.075 134.886 M298.787 134.886 C 298.071 135.595,297.940 135.797,298.495 135.336 C 299.050 134.874,299.861 134.300,300.297 134.059 C 300.733 133.819,300.865 133.616,300.589 133.610 C 300.313 133.603,299.502 134.177,298.787 134.886 M235.911 135.428 C 236.438 136.108,236.948 136.593,237.045 136.507 C 237.143 136.420,236.712 135.863,236.088 135.270 L 234.954 134.192 235.911 135.428 M334.634 135.362 C 334.985 135.809,335.471 136.531,335.712 136.967 C 335.953 137.403,336.156 137.540,336.162 137.271 C 336.169 137.002,335.684 136.280,335.084 135.666 C 334.485 135.053,334.282 134.916,334.634 135.362 M67.592 140.733 C 64.327 144.004,61.744 146.680,61.853 146.680 C 61.962 146.680,64.723 144.004,67.988 140.733 C 71.253 137.463,73.835 134.787,73.726 134.787 C 73.617 134.787,70.857 137.463,67.592 140.733 M296.772 137.396 C 296.426 138.297,296.486 168.195,296.835 168.743 C 296.995 168.995,297.126 161.904,297.126 152.985 C 297.126 144.066,297.100 136.769,297.069 136.769 C 297.038 136.769,296.904 137.051,296.772 137.396 M198.000 153.023 C 198.000 161.417,198.052 164.851,198.116 160.654 C 198.181 156.457,198.181 149.589,198.116 145.391 C 198.052 141.194,198.000 144.628,198.000 153.023 M237.643 153.221 C 237.643 161.506,237.695 164.952,237.760 160.878 C 237.824 156.805,237.824 150.026,237.760 145.814 C 237.695 141.602,237.643 144.936,237.643 153.221 M336.354 153.023 C 336.354 161.199,336.407 164.544,336.471 160.456 C 336.536 156.368,336.536 149.678,336.471 145.590 C 336.407 141.501,336.354 144.846,336.354 153.023 M46.110 155.897 C 46.526 156.278,47.159 156.579,47.517 156.566 C 47.928 156.550,47.810 156.398,47.197 156.153 C 46.663 155.940,46.031 155.639,45.791 155.485 C 45.551 155.330,45.694 155.515,46.110 155.897 M335.585 169.259 C 335.450 169.686,334.800 170.488,334.141 171.043 C 333.481 171.598,333.116 172.052,333.328 172.052 C 333.801 172.052,336.174 169.396,336.174 168.866 C 336.174 168.221,335.845 168.441,335.585 169.259 M81.824 170.422 C 80.274 171.570,60.258 191.525,60.258 191.922 C 60.258 192.038,65.022 187.347,70.845 181.499 C 77.318 174.996,82.055 170.556,83.035 170.071 C 83.917 169.634,84.353 169.277,84.004 169.277 C 83.655 169.277,82.674 169.792,81.824 170.422 M90.981 172.448 C 92.276 173.756,93.424 174.827,93.533 174.827 C 93.642 174.827,92.672 173.756,91.378 172.448 C 90.083 171.140,88.935 170.069,88.826 170.069 C 88.717 170.069,89.687 171.140,90.981 172.448 M235.359 171.073 C 234.748 171.611,234.404 172.052,234.597 172.052 C 234.789 172.052,235.365 171.606,235.877 171.060 C 237.062 169.799,236.800 169.806,235.359 171.073 M209.984 172.745 C 214.166 172.809,221.124 172.809,225.445 172.745 C 229.765 172.681,226.343 172.628,217.839 172.628 C 209.336 172.628,205.801 172.681,209.984 172.745 M308.695 172.745 C 312.878 172.809,319.835 172.809,324.156 172.745 C 328.477 172.681,325.055 172.628,316.551 172.628 C 308.048 172.628,304.512 172.681,308.695 172.745 M105.649 186.720 C 107.821 188.900,109.688 190.684,109.797 190.684 C 109.906 190.684,108.218 188.900,106.046 186.720 C 103.873 184.539,102.007 182.755,101.898 182.755 C 101.789 182.755,103.477 184.539,105.649 186.720 M59.969 194.648 C 59.969 195.629,60.047 196.031,60.141 195.540 C 60.236 195.050,60.236 194.247,60.141 193.756 C 60.047 193.266,59.969 193.667,59.969 194.648 M110.605 196.643 C 110.605 196.940,106.726 201.118,101.986 205.926 L 93.368 214.668 101.813 206.343 C 110.015 198.258,111.316 196.814,110.835 196.332 C 110.708 196.205,110.605 196.345,110.605 196.643 M165.492 216.254 C 165.492 224.321,165.545 227.565,165.609 223.463 C 165.674 219.360,165.673 212.760,165.609 208.795 C 165.544 204.830,165.491 208.186,165.492 216.254 M75.719 212.686 C 79.093 216.065,81.943 218.831,82.052 218.831 C 82.161 218.831,79.489 216.065,76.115 212.686 C 72.741 209.306,69.891 206.541,69.782 206.541 C 69.673 206.541,72.344 209.306,75.719 212.686 M205.001 230.790 C 204.976 231.154,204.853 231.778,204.727 232.178 C 204.511 232.866,204.523 232.867,204.952 232.198 C 205.201 231.809,205.325 231.185,205.226 230.810 C 205.065 230.196,205.043 230.194,205.001 230.790 M304.559 232.012 C 304.133 233.177,304.143 233.226,304.670 232.531 C 305.174 231.865,305.472 230.723,305.141 230.723 C 305.080 230.723,304.818 231.303,304.559 232.012 M266.006 232.565 C 266.006 232.779,266.586 233.478,267.294 234.118 L 268.583 235.282 267.393 233.897 C 266.739 233.135,266.160 232.436,266.105 232.344 C 266.051 232.252,266.006 232.352,266.006 232.565 M203.944 233.531 C 203.799 233.766,203.119 234.301,202.434 234.718 C 201.750 235.136,201.409 235.478,201.679 235.479 C 202.186 235.481,204.968 233.134,204.483 233.114 C 204.333 233.107,204.090 233.295,203.944 233.531 M42.220 241.824 C 37.645 246.402,33.991 250.149,34.100 250.149 C 34.209 250.149,38.042 246.402,42.616 241.824 C 47.191 237.245,50.845 233.499,50.736 233.499 C 50.627 233.499,46.795 237.245,42.220 241.824 M169.277 235.463 C 169.604 235.684,170.213 235.868,170.631 235.871 C 171.645 235.879,171.329 235.652,169.871 235.326 C 169.003 235.132,168.842 235.169,169.277 235.463 M269.177 235.486 C 269.504 235.694,270.292 235.868,270.928 235.871 C 272.462 235.879,272.128 235.650,270.168 235.350 C 269.089 235.184,268.772 235.228,269.177 235.486 M70.367 245.788 C 75.160 250.585,79.171 254.509,79.280 254.509 C 79.389 254.509,75.556 250.585,70.763 245.788 C 65.970 240.991,61.959 237.066,61.850 237.066 C 61.741 237.066,65.574 240.991,70.367 245.788 M29.506 254.695 C 29.153 255.233,28.926 255.834,29.001 256.030 C 29.076 256.226,29.427 255.786,29.781 255.052 C 30.539 253.481,30.411 253.315,29.506 254.695 M145.828 255.798 C 145.992 255.962,199.635 256.052,265.035 255.997 L 383.944 255.897 264.737 255.699 C 199.173 255.590,145.664 255.635,145.828 255.798 M385.633 256.886 C 386.344 257.319,387.279 258.255,387.713 258.966 C 388.146 259.676,388.501 260.014,388.502 259.716 C 388.503 259.417,387.811 258.481,386.964 257.634 C 386.118 256.788,385.181 256.096,384.883 256.097 C 384.585 256.097,384.922 256.453,385.633 256.886 M79.526 259.441 C 79.366 260.078,77.869 262.039,76.198 263.798 L 73.161 266.997 76.055 264.222 C 78.958 261.438,80.262 259.616,79.972 258.747 C 79.887 258.491,79.686 258.803,79.526 259.441 M127.062 265.610 L 120.726 272.151 127.243 265.724 C 130.828 262.190,133.680 259.246,133.580 259.183 C 133.481 259.120,130.548 262.012,127.062 265.610 M388.595 261.645 C 388.595 262.408,388.677 262.721,388.777 262.339 C 388.876 261.957,388.876 261.333,388.777 260.951 C 388.677 260.570,388.595 260.882,388.595 261.645 M388.107 263.927 C 388.107 264.165,387.623 264.953,387.031 265.678 C 386.146 266.763,386.117 266.857,386.869 266.209 C 387.938 265.288,388.667 264.055,388.337 263.726 C 388.211 263.599,388.107 263.690,388.107 263.927 M41.824 273.142 C 46.617 277.939,50.628 281.863,50.737 281.863 C 50.846 281.863,47.013 277.939,42.220 273.142 C 37.427 268.345,33.416 264.420,33.307 264.420 C 33.198 264.420,37.030 268.345,41.824 273.142 M202.049 267.889 C 235.228 267.945,289.638 267.945,322.961 267.889 C 356.284 267.833,329.138 267.787,262.636 267.787 C 196.135 267.787,168.871 267.833,202.049 267.889 M125.865 283.548 L 114.371 295.144 125.966 283.650 C 136.742 272.968,137.740 271.952,137.460 271.952 C 137.404 271.952,132.186 277.170,125.865 283.548 M61.029 278.593 L 59.663 280.079 61.150 278.713 C 62.533 277.442,62.819 277.106,62.516 277.106 C 62.450 277.106,61.781 277.775,61.029 278.593 M101.484 290.882 L 88.999 303.469 101.586 290.984 C 108.508 284.117,114.172 278.453,114.172 278.397 C 114.172 278.117,113.087 279.185,101.484 290.882 M53.419 282.936 C 53.910 283.030,54.713 283.030,55.203 282.936 C 55.694 282.841,55.292 282.764,54.311 282.764 C 53.330 282.764,52.929 282.841,53.419 282.936 M230.360 283.993 C 230.768 284.358,233.102 285.431,233.102 285.253 C 233.102 285.025,230.904 283.845,230.479 283.845 C 230.323 283.845,230.269 283.912,230.360 283.993 M211.037 286.570 C 209.981 287.415,208.583 288.704,207.929 289.435 C 207.100 290.361,207.340 290.224,208.722 288.983 C 209.812 288.004,211.328 286.716,212.091 286.123 C 212.854 285.529,213.361 285.042,213.217 285.039 C 213.073 285.037,212.092 285.726,211.037 286.570 M333.983 287.649 L 332.012 289.470 334.093 287.810 C 335.930 286.345,336.445 285.828,336.064 285.828 C 336.004 285.828,335.067 286.647,333.983 287.649 M361.348 288.603 C 362.422 289.693,363.389 290.585,363.498 290.585 C 363.607 290.585,362.818 289.693,361.744 288.603 C 360.671 287.512,359.703 286.620,359.594 286.620 C 359.485 286.620,360.274 287.512,361.348 288.603 M237.066 288.404 C 237.806 289.167,238.500 289.792,238.609 289.792 C 238.718 289.792,238.202 289.167,237.463 288.404 C 236.723 287.641,236.029 287.017,235.920 287.017 C 235.811 287.017,236.327 287.641,237.066 288.404 M240.576 293.337 C 241.147 294.409,241.675 295.227,241.747 295.154 C 241.936 294.965,240.318 291.871,239.893 291.607 C 239.697 291.486,240.004 292.264,240.576 293.337 M221.351 294.513 C 214.001 296.369,212.951 305.778,219.707 309.253 C 224.465 311.701,230.588 308.203,231.022 302.789 C 231.436 297.631,226.325 293.257,221.351 294.513 M345.185 294.661 C 341.670 295.795,339.077 299.418,339.444 302.679 C 340.473 311.803,353.150 312.611,355.156 303.679 C 356.421 298.050,350.704 292.880,345.185 294.661 M327.594 302.279 C 327.592 304.242,327.659 305.095,327.743 304.174 C 327.826 303.254,327.827 301.649,327.745 300.607 C 327.663 299.564,327.595 300.317,327.594 302.279 M367.196 302.279 C 367.201 303.152,367.282 303.462,367.377 302.969 C 367.471 302.475,367.468 301.762,367.369 301.383 C 367.269 301.004,367.192 301.407,367.196 302.279 M93.952 315.064 L 81.467 327.651 94.054 315.166 C 105.751 303.563,106.819 302.478,106.539 302.478 C 106.483 302.478,100.819 308.142,93.952 315.064 M69.968 322.002 L 58.474 333.598 70.069 322.104 C 76.447 315.782,81.665 310.564,81.665 310.508 C 81.665 310.228,80.649 311.226,69.968 322.002 M333.399 316.155 C 334.584 317.354,335.642 318.335,335.751 318.335 C 335.860 318.335,334.980 317.354,333.796 316.155 C 332.612 314.955,331.553 313.974,331.444 313.974 C 331.335 313.974,332.215 314.955,333.399 316.155 M361.525 315.857 L 360.159 317.344 361.645 315.978 C 362.463 315.226,363.132 314.557,363.132 314.491 C 363.132 314.188,362.796 314.474,361.525 315.857 M208.920 316.155 C 209.659 316.918,210.354 317.542,210.463 317.542 C 210.572 317.542,210.056 316.918,209.316 316.155 C 208.576 315.391,207.882 314.767,207.773 314.767 C 207.664 314.767,208.180 315.391,208.920 316.155 M341.526 321.110 C 341.962 321.297,342.587 321.451,342.914 321.451 C 343.289 321.451,343.215 321.325,342.716 321.110 C 342.279 320.923,341.655 320.769,341.328 320.769 C 340.953 320.769,341.027 320.895,341.526 321.110 M118.316 322.733 C 117.967 323.407,117.752 324.029,117.838 324.115 C 117.924 324.201,118.291 323.649,118.654 322.889 C 119.469 321.179,119.187 321.049,118.316 322.733 M220.317 321.786 C 220.808 321.881,221.611 321.881,222.101 321.786 C 222.592 321.692,222.190 321.614,221.209 321.614 C 220.228 321.614,219.827 321.692,220.317 321.786 M223.885 321.786 C 224.376 321.881,225.178 321.881,225.669 321.786 C 226.160 321.692,225.758 321.614,224.777 321.614 C 223.796 321.614,223.394 321.692,223.885 321.786 M345.590 321.797 C 346.516 321.880,348.033 321.880,348.959 321.797 C 349.886 321.713,349.128 321.645,347.275 321.645 C 345.421 321.645,344.663 321.713,345.590 321.797 M134.388 323.844 C 124.706 326.936,127.364 340.375,137.433 339.240 C 141.965 338.729,145.131 333.988,143.926 329.515 C 142.849 325.515,138.064 322.670,134.388 323.844 M298.712 325.725 C 300.730 327.517,301.474 328.039,300.695 327.119 C 300.263 326.608,299.551 326.006,299.112 325.782 C 298.674 325.557,298.494 325.532,298.712 325.725 M155.936 331.417 C 155.936 333.271,156.005 334.029,156.088 333.102 C 156.172 332.175,156.172 330.659,156.088 329.732 C 156.005 328.806,155.936 329.564,155.936 331.417 M116.281 331.417 C 116.281 332.834,116.353 333.414,116.441 332.706 C 116.529 331.997,116.529 330.837,116.441 330.129 C 116.353 329.420,116.281 330.000,116.281 331.417 M285.629 334.650 C 282.177 335.917,279.546 339.867,280.051 343.023 C 281.392 351.408,292.529 352.637,295.547 344.735 C 297.730 339.020,291.363 332.546,285.629 334.650 M62.237 346.383 L 52.131 356.591 62.339 346.485 C 67.953 340.926,72.547 336.333,72.547 336.276 C 72.547 335.996,71.628 336.897,62.237 346.383 M268.118 342.319 C 268.120 343.845,268.192 344.421,268.277 343.599 C 268.363 342.776,268.362 341.527,268.274 340.824 C 268.187 340.120,268.116 340.793,268.118 342.319 M307.761 342.319 C 307.763 343.845,307.835 344.421,307.921 343.599 C 308.006 342.776,308.005 341.527,307.917 340.824 C 307.830 340.120,307.760 340.793,307.761 342.319 M48.740 342.815 L 47.374 344.301 48.860 342.935 C 49.678 342.184,50.347 341.515,50.347 341.448 C 50.347 341.146,50.011 341.431,48.740 342.815 M150.035 345.391 L 148.067 347.473 150.149 345.505 C 151.293 344.423,152.230 343.487,152.230 343.424 C 152.230 343.128,151.863 343.458,150.035 345.391 M121.903 345.292 C 122.755 346.165,123.540 346.878,123.650 346.878 C 123.759 346.878,123.151 346.165,122.299 345.292 C 121.448 344.420,120.662 343.707,120.553 343.707 C 120.444 343.707,121.051 344.420,121.903 345.292 M36.865 354.708 L 26.759 364.916 36.967 354.810 C 46.453 345.418,47.354 344.500,47.073 344.500 C 47.017 344.500,42.424 349.093,36.865 354.708 M208.226 346.766 C 208.826 346.856,209.807 346.856,210.406 346.766 C 211.006 346.675,210.515 346.600,209.316 346.600 C 208.117 346.600,207.626 346.675,208.226 346.766 M203.964 347.275 C 202.954 347.709,203.996 347.709,205.352 347.275 C 206.149 347.019,206.187 346.955,205.550 346.945 C 205.114 346.939,204.400 347.087,203.964 347.275 M216.881 348.215 C 217.289 348.580,219.623 349.653,219.623 349.475 C 219.623 349.247,217.426 348.067,217.000 348.067 C 216.844 348.067,216.791 348.134,216.881 348.215 M306.110 349.868 C 305.446 351.326,305.572 351.637,306.291 350.312 C 306.626 349.693,306.826 349.112,306.736 349.022 C 306.645 348.931,306.363 349.312,306.110 349.868 M269.574 349.805 C 269.574 350.230,270.753 352.428,270.982 352.428 C 271.091 352.428,270.885 351.848,270.525 351.140 C 269.789 349.693,269.574 349.391,269.574 349.805 M195.228 352.527 L 193.261 354.609 195.342 352.641 C 196.487 351.559,197.423 350.623,197.423 350.560 C 197.423 350.264,197.056 350.593,195.228 352.527 M222.089 351.450 C 222.682 352.074,223.238 352.505,223.325 352.407 C 223.412 352.310,222.927 351.799,222.247 351.273 L 221.011 350.316 222.089 351.450 M133.900 351.123 C 134.393 351.218,135.106 351.214,135.485 351.115 C 135.864 351.016,135.461 350.938,134.589 350.942 C 133.717 350.947,133.406 351.028,133.900 351.123 M137.066 351.122 C 137.557 351.217,138.360 351.217,138.850 351.122 C 139.341 351.028,138.940 350.950,137.958 350.950 C 136.977 350.950,136.576 351.028,137.066 351.122 M273.340 355.545 C 274.212 356.484,275.461 357.622,276.115 358.076 C 277.501 359.036,277.321 358.845,274.133 355.978 C 272.116 354.164,271.995 354.098,273.340 355.545 M301.288 356.482 C 299.871 357.821,299.247 358.541,299.901 358.084 C 301.052 357.279,304.409 353.996,304.045 354.031 C 303.946 354.041,302.706 355.144,301.288 356.482 M205.821 359.385 C 198.826 362.934,200.620 373.064,208.429 374.111 C 214.900 374.979,219.581 367.763,216.104 362.280 C 213.778 358.613,209.639 357.448,205.821 359.385 M277.502 358.966 C 277.502 359.235,280.723 360.837,280.902 360.657 C 280.985 360.574,280.254 360.118,279.278 359.644 C 278.301 359.169,277.502 358.865,277.502 358.966 M296.928 359.564 C 296.165 359.982,295.683 360.331,295.857 360.340 C 296.277 360.362,298.513 359.200,298.513 358.959 C 298.513 358.700,298.490 358.708,296.928 359.564 M286.521 361.836 C 287.448 361.920,288.964 361.920,289.891 361.836 C 290.818 361.753,290.059 361.685,288.206 361.685 C 286.353 361.685,285.595 361.753,286.521 361.836 M189.587 363.925 C 189.587 364.688,189.668 365.000,189.768 364.618 C 189.868 364.237,189.868 363.612,189.768 363.231 C 189.668 362.849,189.587 363.162,189.587 363.925 M34.287 373.935 L 27.156 381.169 34.390 374.038 C 38.370 370.115,41.625 366.860,41.625 366.803 C 41.625 366.521,40.913 367.213,34.287 373.935 M189.587 368.682 C 189.587 369.445,189.668 369.757,189.768 369.376 C 189.868 368.994,189.868 368.370,189.768 367.988 C 189.668 367.607,189.587 367.919,189.587 368.682 M192.966 377.602 C 193.420 378.256,194.648 379.594,195.695 380.575 C 197.388 382.160,197.339 382.072,195.259 379.782 C 192.127 376.334,192.011 376.224,192.966 377.602 M218.038 383.746 C 217.275 384.164,216.793 384.513,216.967 384.523 C 217.387 384.545,219.623 383.382,219.623 383.141 C 219.623 382.882,219.600 382.891,218.038 383.746 M208.028 386.015 C 208.736 386.103,209.896 386.103,210.605 386.015 C 211.313 385.927,210.733 385.855,209.316 385.855 C 207.899 385.855,207.319 385.927,208.028 386.015 " stroke="none" fill="#67abe2" fill-rule="evenodd"></path><path id="path4" d="M43.667 126.134 L 38.375 131.334 43.764 136.724 L 49.154 142.113 54.309 136.969 C 57.145 134.140,59.465 131.642,59.465 131.417 C 59.465 131.015,49.526 120.902,49.152 120.923 C 49.046 120.929,46.578 123.274,43.667 126.134 M80.077 189.298 L 74.777 194.610 78.151 197.900 C 80.007 199.709,82.451 202.077,83.582 203.161 L 85.639 205.133 90.788 199.995 C 93.620 197.170,95.937 194.673,95.937 194.446 C 95.937 194.061,86.723 184.780,85.801 184.237 C 85.568 184.099,82.992 186.377,80.077 189.298 M48.959 252.527 L 43.817 257.681 48.959 262.834 C 51.788 265.669,54.285 267.988,54.509 267.988 C 54.734 267.988,57.231 265.669,60.059 262.834 L 65.202 257.681 60.059 252.527 C 57.231 249.693,54.734 247.374,54.509 247.374 C 54.285 247.374,51.788 249.693,48.959 252.527 " stroke="none" fill="#eabc62" fill-rule="evenodd"></path></g></svg>