<svg xmlns="http://www.w3.org/2000/svg" viewBox="0 0 304.47 458.39"><defs><style>.cls-1,.cls-2{fill:none;stroke:#fff;stroke-miterlimit:10;}.cls-1{stroke-width:7px;}.cls-2{stroke-width:8px;}</style></defs><title>gateway</title><g id="Layer_2" data-name="Layer 2"><path class="cls-1" d="M138.87,188.22l9.39,330.17L324,472.8l-1.35-122.67" transform="translate(-135.09 -64.49)"/><path class="cls-1" d="M138.71,182.52l.16,5.7c-.05-1.9-.05-3.79,0-5.68Z" transform="translate(-135.09 -64.49)"/><path class="cls-1" d="M322.63,350.13,324,472.8l112-29.07V234.19" transform="translate(-135.09 -64.49)"/><path class="cls-1" d="M436,230.6c0,1.19.05,2.39.05,3.59v-3.58Z" transform="translate(-135.09 -64.49)"/><path class="cls-1" d="M436,230.6c-1.62-60-47.4-125.58-116.31-151.41C231.14,46,140.21,88.34,138.85,182.54L321.11,212Z" transform="translate(-135.09 -64.49)"/><path class="cls-1" d="M436,234.19c0-1.2,0-2.4-.05-3.59L321.11,212l1.52,138.1" transform="translate(-135.09 -64.49)"/><polyline class="cls-1" points="184.55 14.7 186.01 147.53 73.57 13.94"/><line class="cls-1" x1="185.91" y1="147.52" x2="266.85" y2="75.63"/><line class="cls-1" x1="106.5" y1="134.67" x2="111.96" y2="428.27"/><line class="cls-1" x1="249.32" y1="157.77" x2="250.48" y2="392.33"/><polyline class="cls-1" points="6.69 226.09 108.25 228.87 300.91 234.13"/><polyline class="cls-1" points="10.05 339.48 110.1 327.99 300.91 306.07"/></g><g id="Layer_4" data-name="Layer 4"><path class="cls-2" d="M807,487" transform="translate(-135.09 -64.49)"/><path class="cls-2" d="M249,487" transform="translate(-135.09 -64.49)"/></g></svg>