<svg xmlns="http://www.w3.org/2000/svg" viewBox="0 0 1400 768"><defs><style>.cls-1,.cls-3{fill:#fff;}.cls-2{fill:#212529;}.cls-3{font-size:185.94px;font-family:FranklinGothic-Heavy, Franklin Gothic Heavy;font-weight:800;}.cls-4{letter-spacing:-0.04em;}.cls-5{fill:#79d475;}.cls-6{fill:#3b7ef3;}.cls-7{fill:#581d77;}.cls-8{fill:#e8484a;}.cls-9{fill:#f8d255;}.cls-10{fill:#ed722e;}</style></defs><title>whattermsdopeopleuse</title><g id="Layer_2" data-name="Layer 2"><polygon class="cls-1" points="1036.09 277.96 1044.67 231.69 1090.88 230.8 1086.78 282.66 1036.09 277.96"/><path class="cls-2" d="M1089.25,232.33l-2.31,29.24L1085.4,281l-47.54-4.4,8.06-43.45,43.33-.84m3.25-3.07-49.09,1-9.1,49.08,53.84,5,1.78-22.48,2.57-32.55Z"/><polygon class="cls-1" points="1024.37 341.14 1035.54 280.92 1086.54 285.65 1081.06 354.93 1024.37 341.14"/><path class="cls-2" d="M1036.76,282.54l48.17,4.47-5.22,66.05L1026.1,340l10.66-57.47m-2.45-3.24-11.67,63,59.78,14.55,5.73-72.52-53.84-5Z"/><polygon class="cls-1" points="1097.19 188.95 1149.82 183.53 1152.16 226.61 1094.13 227.73 1097.19 188.95"/><path class="cls-2" d="M1148.4,185.18l2.17,40-54.82,1.06,2.84-35.89,49.81-5.13m2.83-3.3-55.36,5.7h-.07l-3.3,41.68,61.24-1.18-2.51-46.2Z"/><path class="cls-1" d="M1152.8,183.22l66.56-6.85c.1.39.19.76.27,1.12l10.78,47.6-75.25,1.46Z"/><path class="cls-2" d="M1218.21,178l10.33,45.63-72,1.39-2.2-40.45,63.83-6.57m2.25-3.25-69.23,7.13,2.51,46.2,78.54-1.53-11.19-49.39c-.18-.82-.4-1.62-.63-2.41Z"/><polygon class="cls-1" points="1089.77 282.93 1093.89 230.74 1152.32 229.6 1155.55 289.03 1089.77 282.93"/><path class="cls-2" d="M1150.9,231.13l3.06,56.24-62.58-5.79,1.54-19.53,2.36-29.84,55.62-1.08m2.84-3-61.24,1.18-2.57,32.55-1.78,22.48,69,6.39-3.4-62.6Z"/><path class="cls-1" d="M1163.22,374.93l-7.9-145.38,75.76-1.47L1270.23,401ZM1084,355.65l5.51-69.73,66.18,6.14,4.46,82.13Z"/><path class="cls-2" d="M1229.89,229.6l15,66.2L1160,287.93,1156.9,231l73-1.42m-139,58,63.39,5.87,4.28,78.82-73-17.75,5.29-66.94m69.42,6.43,86,8,22,97-103.57-25.21L1160.32,294m72-67.44-78.54,1.53,3.4,62.6,91.45,8.48-91.45-8.48,4.64,85.44-4.64-85.44-69-6.39-5.73,72.52L1272.22,403l-39.94-176.45Z"/><path class="cls-1" d="M977.83,329.81l35.84-131.59c.06-.23.13-.46.2-.69l34.75-3.58-27.17,146.48Zm73.9-136.18,42.43-4.37-3.05,38.53-45.88.89Z"/><path class="cls-2" d="M1092.52,190.94l-2.8,35.38-42.68.83,6-32.14,39.52-4.07m-45.75,4.71-5.86,31.61-33.77.66,7.9-29,31.73-3.26m-7,37.64-7.93,42.77L995,272.64,1005.49,234l34.3-.66m-46.43,45.23,37.4,3.47-10.49,56.6-40.58-9.87,13.67-50.2m102.44-90.94-83.08,8.56c-.18.56-.34,1.12-.5,1.69l-21.1,77.47,43.19,4,9.1-49.08-40.22.78,40.22-.78,7-38-7,38,49.09-1,3.3-41.68ZM991.12,275.3Zm0,0L976,330.9l46.66,11.36,11.67-63-43.19-4Z"/><path class="cls-1" d="M1220.55,174.74h-.09c.23.79.45,1.59.63,2.41Z"/><path class="cls-2" d="M1220.55,174.74h-.09c.23.79.45,1.59.63,2.41l-.54-2.42Z"/><path class="cls-1" d="M1012.68,196.14l-.46,1.69c.16-.57.32-1.13.5-1.69Z"/><path class="cls-2" d="M1012.72,196.14h0l-.46,1.69c.16-.57.32-1.13.5-1.69Z"/><polygon class="cls-1" points="1095.83 187.56 1095.8 187.58 1095.87 187.58 1095.83 187.56"/><polygon class="cls-2" points="1095.83 187.56 1095.8 187.58 1095.87 187.58 1095.83 187.56 1095.83 187.56"/><path class="cls-1" d="M1048.29,157.78a155.05,155.05,0,0,1,49.94-20.07L1094.49,185Z"/><path class="cls-2" d="M1096.58,139.62l-3.39,42.89-42-24.76a153.92,153.92,0,0,1,45.4-18.13m3.31-3.79c-20.68,4.24-39.5,12.11-54.45,22l50.36,29.7,4.09-51.71Z"/><polygon class="cls-1" points="1095.8 187.54 1095.8 187.58 1095.83 187.56 1095.8 187.54"/><polygon class="cls-2" points="1095.8 187.54 1095.8 187.58 1095.83 187.56 1095.8 187.54 1095.8 187.54"/><path class="cls-1" d="M1014.9,194.4c4.58-12.26,15.34-24.51,30.59-34.79l45.68,26.94Z"/><path class="cls-2" d="M1045.54,161.39l40.94,24.14-69.25,7.13c4.81-11,14.67-21.93,28.31-31.27m-.1-3.55c-16.56,11-28.38,24.44-32.72,38.3l83.08-8.56v0l-50.36-29.7Z"/><path class="cls-1" d="M1101.29,137.07a174.11,174.11,0,0,1,33.72-3.32,152.46,152.46,0,0,1,28.7,2.62l-66.16,48.09Z"/><path class="cls-2" d="M1135,135.25a152.73,152.73,0,0,1,25,2l-60.68,44.1,3.4-43a171.42,171.42,0,0,1,32.31-3.08m0-3a175.24,175.24,0,0,0-35.12,3.58l-4.09,51.71,0,0,71.51-52a151.66,151.66,0,0,0-32.33-3.34Z"/><path class="cls-1" d="M1167.68,137.2c26.83,6,44.77,18.83,50.78,36.25l-117.28,12.07Z"/><path class="cls-2" d="M1168,138.81c12.52,2.89,23.5,7.51,31.82,13.41,7.93,5.62,13.48,12.32,16.55,19.93l-65.46,6.74-44.35,4.57L1168,138.81m-.67-3.22-71.51,52,0,0,55.36-5.7,69.23-7.13c-6-20.16-26.71-33.38-53.12-39.16Z"/></g><g id="Layer_4" data-name="Layer 4"><text class="cls-3" transform="translate(46.37 341.98) scale(0.35 1)">WH<tspan class="cls-4" x="293.98" y="0">A</tspan><tspan x="405.48" y="0">T TERMS DO PEOPLE USE?</tspan></text></g><g id="Layer_5" data-name="Layer 5"><polygon class="cls-5" points="1002.4 588 1087.21 286.04 1085.85 286.85 816.59 588 1002.4 588"/><polygon class="cls-6" points="1002.4 588 1183.77 588 1087.73 285.73 1087.21 286.04 1002.4 588"/><polygon class="cls-7" points="1183.77 588 1366.44 588 1088.02 285.56 1087.73 285.73 1183.77 588"/><polygon class="cls-8" points="1087.73 285.73 1088.02 285.56 1087.92 285.45 1087.67 285.52 1087.73 285.73"/><polygon class="cls-8" points="1088.49 285.29 1087.92 285.45 1088.02 285.56 1088.49 285.29"/><polygon class="cls-8" points="1087.33 285.62 1086.81 285.77 1085.85 286.85 1087.21 286.04 1087.33 285.62"/><polygon class="cls-9" points="1085.85 286.85 577.28 588 816.59 588 1085.85 286.85"/><polygon class="cls-8" points="1087.73 285.73 1087.67 285.52 1087.33 285.62 1087.21 286.04 1087.73 285.73"/><polygon class="cls-8" points="1087.5 285 1081.95 287.18 1086.81 285.77 1087.5 285"/><path class="cls-8" d="M1082,287.18,48.13,587.05l5.92,1H317Z"/><polygon class="cls-8" points="1087.92 285.45 1087.5 285 1087.67 285.52 1087.92 285.45"/><polygon class="cls-10" points="577.28 588 1085.85 286.85 1086.81 285.77 1081.95 287.18 317.04 588 577.28 588"/><polygon class="cls-8" points="1087.67 285.52 1087.5 285 1087.33 285.62 1087.67 285.52"/><polygon class="cls-8" points="1087.33 285.62 1087.5 285 1086.81 285.77 1087.33 285.62"/></g></svg>